# xmcd
#
# Track frame offsets:
#	150
#	12307
#	23835
#	35510
#	48880
#	62345
#	74667
#	84425
#	97312
#	109507
#	123080
#	135285
#
# Disc length: 1969 seconds
#
# Revision: 1
# Processed by: cddbd v1.5.1PL0 Copyright (c) Steve Scherf et al.
# Submitted via: dBpowerAMP V4.0
#
DISCID=9407af0c
DTITLE=Ray Price - 36 All-Time Favorites, Disc 1
DYEAR=2000
DGENRE=Country
TTITLE0=Release Me
TTITLE1=Crazy Arms
TTITLE2=My Shoes Keep Walking Back To You
TTITLE3=City Lights
TTITLE4=Heartaches By The Number
TTITLE5=I've Got A New Heartache
TTITLE6=If You Don't Somebody Else Will
TTITLE7=I'll Be There (When You Get Lonely)
TTITLE8=Run Boy
TTITLE9=Weary Blues (From Waiting)
TTITLE10=The Same Old Me
TTITLE11=One More Time
EXTD=Entered By Itaot...
EXTT0=
EXTT1=
EXTT2=
EXTT3=
EXTT4=
EXTT5=
EXTT6=
EXTT7=
EXTT8=
EXTT9=
EXTT10=
EXTT11=
PLAYORDER=
